<mxfile host="Electron" modified="2025-09-25T05:09:09.666Z" agent="Mozilla/5.0 (Windows NT 10.0; Win64; x64) AppleWebKit/537.36 (KHTML, like Gecko) draw.io/24.2.5 Chrome/120.0.6099.109 Electron/28.1.0 Safari/537.36" etag="9MK-zdLUxQhInOwN6ag1" version="24.2.5" type="device">
  <diagram id="C5RBs43oDa-KdzZeNtuy" name="Page-1">
    <mxGraphModel dx="712" dy="827" grid="1" gridSize="10" guides="1" tooltips="1" connect="1" arrows="1" fold="1" page="1" pageScale="1" pageWidth="827" pageHeight="1169" math="0" shadow="0">
      <root>
        <mxCell id="WIyWlLk6GJQsqaUBKTNV-0" />
        <mxCell id="WIyWlLk6GJQsqaUBKTNV-1" parent="WIyWlLk6GJQsqaUBKTNV-0" />
        <mxCell id="TtcrRdb4RBPkJrIF4SqN-21" value="" style="edgeStyle=orthogonalEdgeStyle;rounded=0;orthogonalLoop=1;jettySize=auto;html=1;" edge="1" parent="WIyWlLk6GJQsqaUBKTNV-1" source="TtcrRdb4RBPkJrIF4SqN-0" target="TtcrRdb4RBPkJrIF4SqN-1">
          <mxGeometry relative="1" as="geometry" />
        </mxCell>
        <mxCell id="TtcrRdb4RBPkJrIF4SqN-0" value="INICIO&lt;br&gt;CAPTURA DE BOLETAS" style="ellipse;whiteSpace=wrap;html=1;aspect=fixed;" vertex="1" parent="WIyWlLk6GJQsqaUBKTNV-1">
          <mxGeometry x="374" y="40" width="80" height="80" as="geometry" />
        </mxCell>
        <mxCell id="TtcrRdb4RBPkJrIF4SqN-3" value="" style="edgeStyle=orthogonalEdgeStyle;rounded=0;orthogonalLoop=1;jettySize=auto;html=1;" edge="1" parent="WIyWlLk6GJQsqaUBKTNV-1" source="TtcrRdb4RBPkJrIF4SqN-1" target="TtcrRdb4RBPkJrIF4SqN-2">
          <mxGeometry relative="1" as="geometry" />
        </mxCell>
        <mxCell id="TtcrRdb4RBPkJrIF4SqN-1" value="Se selecciona grupo" style="rounded=1;whiteSpace=wrap;html=1;" vertex="1" parent="WIyWlLk6GJQsqaUBKTNV-1">
          <mxGeometry x="354" y="160" width="120" height="60" as="geometry" />
        </mxCell>
        <mxCell id="TtcrRdb4RBPkJrIF4SqN-9" value="" style="edgeStyle=orthogonalEdgeStyle;rounded=0;orthogonalLoop=1;jettySize=auto;html=1;" edge="1" parent="WIyWlLk6GJQsqaUBKTNV-1" source="TtcrRdb4RBPkJrIF4SqN-2" target="TtcrRdb4RBPkJrIF4SqN-8">
          <mxGeometry relative="1" as="geometry" />
        </mxCell>
        <mxCell id="TtcrRdb4RBPkJrIF4SqN-2" value="Se selecciona mes" style="rounded=1;whiteSpace=wrap;html=1;" vertex="1" parent="WIyWlLk6GJQsqaUBKTNV-1">
          <mxGeometry x="354" y="250" width="120" height="60" as="geometry" />
        </mxCell>
        <mxCell id="TtcrRdb4RBPkJrIF4SqN-11" value="" style="edgeStyle=orthogonalEdgeStyle;rounded=0;orthogonalLoop=1;jettySize=auto;html=1;" edge="1" parent="WIyWlLk6GJQsqaUBKTNV-1" source="TtcrRdb4RBPkJrIF4SqN-8" target="TtcrRdb4RBPkJrIF4SqN-10">
          <mxGeometry relative="1" as="geometry" />
        </mxCell>
        <mxCell id="TtcrRdb4RBPkJrIF4SqN-8" value="Se muestra la lista de alumnos y materias" style="rounded=1;whiteSpace=wrap;html=1;" vertex="1" parent="WIyWlLk6GJQsqaUBKTNV-1">
          <mxGeometry x="354" y="340" width="120" height="60" as="geometry" />
        </mxCell>
        <mxCell id="TtcrRdb4RBPkJrIF4SqN-13" value="" style="edgeStyle=orthogonalEdgeStyle;rounded=0;orthogonalLoop=1;jettySize=auto;html=1;" edge="1" parent="WIyWlLk6GJQsqaUBKTNV-1" source="TtcrRdb4RBPkJrIF4SqN-10" target="TtcrRdb4RBPkJrIF4SqN-12">
          <mxGeometry relative="1" as="geometry" />
        </mxCell>
        <mxCell id="TtcrRdb4RBPkJrIF4SqN-10" value="Usuario coloca calificacion en espacio correspondiente" style="rounded=1;whiteSpace=wrap;html=1;" vertex="1" parent="WIyWlLk6GJQsqaUBKTNV-1">
          <mxGeometry x="354" y="440" width="120" height="60" as="geometry" />
        </mxCell>
        <mxCell id="TtcrRdb4RBPkJrIF4SqN-15" value="" style="edgeStyle=orthogonalEdgeStyle;rounded=0;orthogonalLoop=1;jettySize=auto;html=1;" edge="1" parent="WIyWlLk6GJQsqaUBKTNV-1" source="TtcrRdb4RBPkJrIF4SqN-12" target="TtcrRdb4RBPkJrIF4SqN-14">
          <mxGeometry relative="1" as="geometry" />
        </mxCell>
        <mxCell id="TtcrRdb4RBPkJrIF4SqN-12" value="Se presiona botón de guardar al lado del nombre de cada alumno" style="rounded=1;whiteSpace=wrap;html=1;" vertex="1" parent="WIyWlLk6GJQsqaUBKTNV-1">
          <mxGeometry x="354" y="540" width="120" height="60" as="geometry" />
        </mxCell>
        <mxCell id="TtcrRdb4RBPkJrIF4SqN-17" value="" style="edgeStyle=orthogonalEdgeStyle;rounded=0;orthogonalLoop=1;jettySize=auto;html=1;" edge="1" parent="WIyWlLk6GJQsqaUBKTNV-1" source="TtcrRdb4RBPkJrIF4SqN-14" target="TtcrRdb4RBPkJrIF4SqN-16">
          <mxGeometry relative="1" as="geometry" />
        </mxCell>
        <mxCell id="TtcrRdb4RBPkJrIF4SqN-28" value="NO" style="edgeLabel;html=1;align=center;verticalAlign=middle;resizable=0;points=[];" vertex="1" connectable="0" parent="TtcrRdb4RBPkJrIF4SqN-17">
          <mxGeometry x="-0.1828" y="2" relative="1" as="geometry">
            <mxPoint as="offset" />
          </mxGeometry>
        </mxCell>
        <mxCell id="TtcrRdb4RBPkJrIF4SqN-20" value="" style="edgeStyle=orthogonalEdgeStyle;rounded=0;orthogonalLoop=1;jettySize=auto;html=1;" edge="1" parent="WIyWlLk6GJQsqaUBKTNV-1" source="TtcrRdb4RBPkJrIF4SqN-14">
          <mxGeometry relative="1" as="geometry">
            <mxPoint x="414" y="800" as="targetPoint" />
          </mxGeometry>
        </mxCell>
        <mxCell id="TtcrRdb4RBPkJrIF4SqN-27" value="SI" style="edgeLabel;html=1;align=center;verticalAlign=middle;resizable=0;points=[];" vertex="1" connectable="0" parent="TtcrRdb4RBPkJrIF4SqN-20">
          <mxGeometry x="-0.21" y="-2" relative="1" as="geometry">
            <mxPoint as="offset" />
          </mxGeometry>
        </mxCell>
        <mxCell id="TtcrRdb4RBPkJrIF4SqN-14" value="¿Valor es mayor que 5 y menor que 11?" style="rhombus;whiteSpace=wrap;html=1;rounded=1;" vertex="1" parent="WIyWlLk6GJQsqaUBKTNV-1">
          <mxGeometry x="341" y="650" width="146" height="110" as="geometry" />
        </mxCell>
        <mxCell id="TtcrRdb4RBPkJrIF4SqN-18" style="edgeStyle=orthogonalEdgeStyle;rounded=0;orthogonalLoop=1;jettySize=auto;html=1;exitX=0.5;exitY=0;exitDx=0;exitDy=0;entryX=0;entryY=0.5;entryDx=0;entryDy=0;" edge="1" parent="WIyWlLk6GJQsqaUBKTNV-1" source="TtcrRdb4RBPkJrIF4SqN-16" target="TtcrRdb4RBPkJrIF4SqN-10">
          <mxGeometry relative="1" as="geometry" />
        </mxCell>
        <mxCell id="TtcrRdb4RBPkJrIF4SqN-16" value="Input invalido, no guardar" style="whiteSpace=wrap;html=1;rounded=1;" vertex="1" parent="WIyWlLk6GJQsqaUBKTNV-1">
          <mxGeometry x="128" y="675" width="120" height="60" as="geometry" />
        </mxCell>
        <mxCell id="TtcrRdb4RBPkJrIF4SqN-25" value="" style="edgeStyle=orthogonalEdgeStyle;rounded=0;orthogonalLoop=1;jettySize=auto;html=1;" edge="1" parent="WIyWlLk6GJQsqaUBKTNV-1" target="TtcrRdb4RBPkJrIF4SqN-24">
          <mxGeometry relative="1" as="geometry">
            <mxPoint x="414" y="880" as="sourcePoint" />
          </mxGeometry>
        </mxCell>
        <mxCell id="TtcrRdb4RBPkJrIF4SqN-24" value="FIN" style="ellipse;whiteSpace=wrap;html=1;rounded=1;" vertex="1" parent="WIyWlLk6GJQsqaUBKTNV-1">
          <mxGeometry x="374" y="910" width="80" height="80" as="geometry" />
        </mxCell>
        <mxCell id="TtcrRdb4RBPkJrIF4SqN-26" value="Guardar input" style="shape=cylinder3;whiteSpace=wrap;html=1;boundedLbl=1;backgroundOutline=1;size=15;" vertex="1" parent="WIyWlLk6GJQsqaUBKTNV-1">
          <mxGeometry x="384" y="800" width="60" height="80" as="geometry" />
        </mxCell>
      </root>
    </mxGraphModel>
  </diagram>
</mxfile>
